<?xml version="1.0" encoding="UTF-8"?>
<svg id="Layer_1" data-name="Layer 1" xmlns="http://www.w3.org/2000/svg" viewBox="0 0 2146.09 2145.75">
  <defs>
    <style>
      .cls-1 {
        fill: #231f20;
      }

      .cls-1, .cls-2, .cls-3, .cls-4, .cls-5, .cls-6 {
        fill-rule: evenodd;
      }

      .cls-2 {
        fill: #58585a;
      }

      .cls-3 {
        fill: #ffd613;
      }

      .cls-4 {
        fill: #fefefe;
      }

      .cls-5 {
        fill: #363638;
      }

      .cls-6 {
        fill: #a09d9d;
      }
    </style>
  </defs>
  <g id="WS3Sdq">
    <g>
      <path class="cls-1" d="m2146.02,1076.02c6.31,538.9-433.47,1063.68-1064.08,1069.68C488.09,2151.35-.22,1675.59,0,1075.49.23,456.08,497.65,7.54,1057.91.1c596.04-7.92,1089.3,472.73,1088.12,1075.92Z"/>
      <path class="cls-3" d="m424.57,255.97c36.11-31.36,76.01-57.35,116.98-81.68,122.71-72.87,254.87-120.02,396.49-136.55,312.74-36.51,590.37,46.8,827.46,254.8,179.84,157.78,289.81,357.01,334.8,591.95,8.24,43.05,12.6,86.65,15.45,130.37.98,14.78.45,15.04-13.2,9.5-74.49-30.23-147.26-64.55-222.37-93.33-60.08-23.02-121.46-41.72-184.6-54.2-11.24-2.22-15.9-7.02-18.74-18.09-38.6-150.72-174.9-263.57-329.36-273.38-159.35-10.13-298.11,71.94-365.57,216.75-4.65,9.99-10.07,13.2-20.99,13.53-184.13,5.58-364.5,34.96-541.45,86.03-125.19,36.13-247.41,80.71-368.64,128.15-6.29,2.46-12.66,4.71-20.16,7.48-1.84-13.1.13-25.07,1.01-37.07,17.23-235.05,104.24-440.87,259-618.29,8.09-9.28,16.81-18.01,25.24-27,3.77,6.41-1.38,10.38-4.32,14.69-25.98,38.06-45.21,78.95-52.49,124.83-8.67,54.64,1.44,104.4,40.92,145.17,21.48,22.19,48.41,35.92,78.7,42.34,57.69,12.23,113.35,3.91,167.57-17.45,50.99-20.09,96.23-49.81,134.76-88.19,51.6-51.4,90.07-111.13,99.86-185.35,13.42-101.69-45.64-171.68-137.83-184.77-70.82-10.05-135.58,9.33-197.13,42.96-6.51,3.56-12.05,11.69-21.42,6.79Z"/>
      <path class="cls-4" d="m387.27,1183.54c98.53-26.64,198.31-47.11,299.29-61.99,67.59-9.96,135.48-16.83,203.58-21.78,26.25-1.91,52.6-2.43,78.86-4.32,8.29-.6,10.79,3.76,13.67,9.89,46.65,99.41,121.35,168.58,226.41,200.89,126.55,38.91,242.48,14.53,345.87-68.05,27.7-22.11,51.3-48.32,70.59-78.11,4.9-7.56,9.64-9.67,18.76-7.76,129.69,27.02,255.8,65.99,379.73,112.39,19.1,7.15,37.87,15.26,57.27,21.46,10.16,3.24,10.76,8.52,8.67,17-10.52,42.95-22.56,85.43-38.14,126.84-21.58,57.37-46.6,113.11-78.77,165.44-3.09,5.02-6.86,9.62-10.32,14.41-10.9,16.15-27.28,26.72-41.37,39.46-40.11,36.25-83,69.06-128.73,98.1-81.45,51.75-168.94,89.52-261.98,114.78-56.43,15.32-113.89,25.16-172.07,29.14-156.82,10.76-307.51-14.87-451.5-78.73-67.63-30-130.92-67.39-189.36-112.49-59.06-45.6-112.32-97.33-158.99-155.96-82-103.01-140.21-217.74-174.39-344.78-1.54-5.73-4.13-11.67,2.94-15.81Z"/>
      <path class="cls-6" d="m387.27,1183.54c-3.02,3.91-1.71,7.87-.6,12.1,23,87.82,58.08,170.64,105.41,247.93,57.75,94.3,129.81,176.17,216.79,244.98,117.24,92.75,249.2,153.38,395.28,183.46,47.47,9.77,95.61,14.9,144.17,17.1,123.98,5.64,244.09-13.04,360.61-55.06,71.07-25.63,137.82-59.8,200.75-101.83,49.65-33.17,94.42-72.16,139.05-111.48,4.43-3.91,9.33-7.28,14.01-10.9-8.48,21.95-23.39,40.02-36.45,59.08-41.44,60.51-90.46,114.64-143.94,164.58-60.67,56.65-127.51,105.08-200.02,145.73-84.24,47.22-173.29,81.79-267.18,104.08-55.7,13.22-112.02,21.74-169.22,25.74-24.56,1.71-49.19,2.25-73.67,2.89-33.82.88-67.88-1.72-101.63-4.96-93.53-8.98-184.29-30.52-272.03-64.2-112.63-43.24-214.96-103.79-306.37-182.72-171.51-148.12-283.96-332.22-337.91-552.29-2.81-11.48.43-15.43,10.63-19.31,100.63-38.26,202.52-72.6,306.47-100.74,5.28-1.43,10.57-2.79,15.86-4.18Z"/>
      <path class="cls-2" d="m106.29,1030.25c50.26-19.18,100.66-37.96,151.52-55.55,57.6-19.92,115.39-39.28,174.29-54.75,73.32-19.25,146.83-37.88,221.68-50.61,58.05-9.87,116.24-18.42,174.96-23.33,36.76-3.07,73.46-6.5,110.36-7.84,14.8-.53,29.63-2.14,44.48-1.86,7.01.13,9.4-3.53,11.64-9.22,28.55-72.42,76.37-129,142.3-169.94,42.72-26.53,89.37-42.65,139.52-48.47,93.91-10.89,178.84,12.09,253.85,69.09,66.68,50.67,109.39,117.71,127.99,199.49,2.59,11.36,7.66,15.79,18.5,17.85,109.99,20.89,213.45,61.18,315.29,106.37,39.58,17.56,79.62,34.11,119.69,50.54,7.41,3.04,11.16,7.15,11.41,14.78,2.23,66.38.34,132.41-15.23,197.44-2.37,9.89-7.71,7.8-13.98,5.3-67.5-26.8-135.85-51.28-205.02-73.41-84.86-27.14-170.88-49.89-258.2-67.73-8.75-1.79-11.53,2.5-14.86,7.95-27.77,45.27-63.8,82.59-108.56,111.14-48.39,30.88-101.06,48.97-158.62,53.91-82.42,7.08-157.32-13.03-225.65-58.75-58.97-39.46-100.64-93.22-127.66-158.37-3.83-9.26-8.74-10.93-17.14-10.4-42.32,2.65-84.75,4.05-126.96,7.9-55.64,5.06-111.17,11.12-166.54,19.12-75.96,10.97-151.13,25.73-225.93,42.46-28.01,6.27-55.11,16.57-83.05,23.23-35.04,8.36-69.2,19.59-103.79,29.41-6.09,1.73-11.48,5.81-18.18,5.42-12.83,4.55-24.33-.96-35.41-5.73-67.1-28.88-105.91-79.77-116.76-152-.78-5.18-1.69-10.25,4.02-13.43Z"/>
      <path class="cls-4" d="m424.57,255.97c5.37,1.03,8.54-3.23,12.4-5.46,56.34-32.56,116.18-52.04,182.07-50.34,78.02,2.02,140.03,45.09,160.01,112.11,11.55,38.75,9.29,77.58-2.32,115.73-27.33,89.77-85.6,155.63-163.06,205.48-60.78,39.11-126.98,61.11-200.34,57.22-83.65-4.43-145.5-56.27-158.04-133.37-7.04-43.29,1.51-84.67,17.9-124.72,9.7-23.73,22.47-45.79,37.19-66.77,2.32-3.29,6.47-5.86,5.55-10.89,10.45-11.13,20.91-22.25,31.34-33.39,23.25-24.83,50.73-44.67,77.29-65.59Z"/>
      <path class="cls-5" d="m106.29,1030.25c-4.64,12.45.3,24.59,3.44,35.81,19.35,69.31,64.17,114.18,133.34,134.41,3.58,1.04,7.58.67,11.38.95-34.33,11.61-68.74,22.98-102.97,34.86-33.1,11.48-66.4,22.46-98.49,36.62-7.79,3.45-9.61-.1-11.31-6.39-5.73-21.24-8.37-43.02-12.08-64.63-7.22-42.12-4.39-84.58-5.17-126.92-.17-9.44,2.88-14.52,12.17-17.86,23.42-8.4,45.77-19.64,69.68-26.84Z"/>
      <path class="cls-1" d="m1329.02,690.5c139.58-1.7,257.39,114.13,255.95,258.25-1.39,140.46-113.45,254.93-257.77,254.57-143.82-.36-255.49-117.05-255.42-256.96.07-140.4,114.69-257.99,257.24-255.87Z"/>
      <path class="cls-4" d="m1093.55,944.85c1.59-129.94,107.81-234.6,236.54-233.06,132.69,1.59,234.5,107.87,232.67,242.91-1.72,126.37-110.3,228.3-241.24,226.44-125.36-1.78-229.51-109.73-227.97-236.28Z"/>
      <path class="cls-1" d="m1328.72,765.91c100.28.55,181.07,81.97,180.25,181.67-.81,99.77-81.54,179.93-180.93,179.69-100.57-.25-180.91-81.83-180.12-182.91.76-98.57,82.24-179,180.8-178.45Z"/>
      <path class="cls-4" d="m1494.73,949.46c-4.54,97.06-80.73,167.5-176.24,162.94-88.35-4.22-160.98-83.73-156.43-171.24,4.84-93.07,82.25-165.27,172.39-160.79,91.04,4.53,164.37,81.89,160.28,169.09Z"/>
    </g>
  </g>
</svg>